<svg xmlns="http://www.w3.org/2000/svg" viewBox="0 0 1024 1024" width="1024" height="1024" preserveAspectRatio="xMidYMid slice">
  <!-- Zigzag line mask: diagonal bands to evoke routes/trails. -->
  <rect width="1024" height="1024" fill="#000"/>
  <g fill="#fff" opacity="0.98">
    <path d="M-80 160 120 0 240 120 400-40 560 120 720-40 880 120 1040-40 1200 120 1200 240 1040 80 880 240 720 80 560 240 400 80 240 240 120 120 -80 280Z"/>
    <path d="M-80 480 120 320 240 440 400 280 560 440 720 280 880 440 1040 280 1200 440 1200 560 1040 400 880 560 720 400 560 560 400 400 240 560 120 440 -80 600Z"/>
    <path d="M-80 800 120 640 240 760 400 600 560 760 720 600 880 760 1040 600 1200 760 1200 880 1040 720 880 880 720 720 560 880 400 720 240 880 120 760 -80 920Z"/>
  </g>
</svg>


